<svg xmlns="http://www.w3.org/2000/svg" viewBox="0 0 59.997 59.997">
  <path d="M52.475 46.944c-1.898-3.587-8.899-7.69-8.899-7.69-1.584-.903-3.495-1.004-4.399.606 0 0-2.274 2.728-2.853 3.12-2.643 1.791-5.091 1.722-7.562-.75l-5.743-5.743-5.743-5.743c-2.472-2.472-2.541-4.919-.75-7.562.392-.579 3.12-2.853 3.12-2.853 1.609-.904 1.509-2.815.606-4.399 0 0-4.103-7.001-7.69-8.899a3.932 3.932 0 00-4.621.695l-2.537 2.537c-8.045 8.045-4.084 17.129 3.961 25.174l7.353 7.353 7.353 7.353c8.045 8.045 17.129 12.007 25.174 3.961l2.537-2.537a3.938 3.938 0 00.693-4.623z" fill="#52c306"/>
  <path d="M39.654 59.51c-1.054 0-2.128-.127-3.224-.38-4.132-.955-8.529-3.741-13.068-8.281L8.657 36.142C-1.336 26.15-2.706 16.957 4.695 9.555l2.537-2.537a4.907 4.907 0 015.796-.872c3.796 2.008 7.912 8.981 8.085 9.277.734 1.287.964 2.608.653 3.731-.234.845-.768 1.532-1.546 1.996-1.22 1.02-2.646 2.285-2.869 2.595-1.603 2.364-1.414 4.247.631 6.292l11.486 11.486c2.043 2.043 3.924 2.233 6.295.629.305-.221 1.57-1.646 2.592-2.867.463-.778 1.151-1.312 1.995-1.546 1.124-.313 2.445-.082 3.721.646.307.18 7.28 4.297 9.288 8.092a4.907 4.907 0 01-.872 5.796L49.95 54.81c-3.127 3.126-6.579 4.7-10.296 4.7zM10.717 7.569c-.758 0-1.504.296-2.07.862L6.11 10.968c-6.568 6.569-5.235 14.563 3.962 23.76l14.705 14.706c9.197 9.198 17.191 10.529 23.76 3.961l2.537-2.537a2.92 2.92 0 00.519-3.446c-1.448-2.736-6.643-6.194-8.521-7.296-.776-.443-1.6-.609-2.185-.45-.36.101-.634.324-.836.684l-.104.151c-.711.853-2.433 2.881-3.06 3.307-3.15 2.133-6.12 1.841-8.831-.87L16.568 31.451c-2.712-2.711-3.005-5.683-.871-8.831.425-.627 2.455-2.349 3.308-3.061l.15-.104c.36-.202.584-.476.684-.836.163-.588-.008-1.409-.457-2.196-.033-.057-3.995-6.768-7.289-8.511a2.955 2.955 0 00-1.376-.343z" fill="#388f04"/>
  <path d="M39.998 48.508c-.034 0-.069-.002-.104-.005-6.895-.716-11.409-5.097-11.599-5.283a1 1 0 011.403-1.425c.041.04 4.227 4.077 10.402 4.718a1.001 1.001 0 01-.102 1.995zM17.996 32.508a.994.994 0 01-.635-.229c-.229-.188-5.638-4.715-6.359-11.668a1.002 1.002 0 01.892-1.099 1.006 1.006 0 011.099.892c.635 6.12 5.592 10.291 5.642 10.332a1.002 1.002 0 01-.639 1.772z" fill="#388f04"/>
  <g fill="#efce4a">
    <path d="M27.362.487a1 1 0 100 2c16.892 0 30.635 13.743 30.635 30.635a1 1 0 102 0c0-17.995-14.64-32.635-32.635-32.635z"/>
    <path d="M27.362 7.517a1 1 0 100 2c13.016 0 23.604 10.589 23.604 23.604a1 1 0 102 0C52.967 19.004 41.48 7.517 27.362 7.517z"/>
    <path d="M27.362 14.547a1 1 0 100 2c9.14 0 16.575 7.436 16.575 16.575a1 1 0 102 0c0-10.242-8.333-18.575-18.575-18.575z"/>
  </g>
</svg>
